<svg width="158" height="64" viewBox="0 0 158 64" fill="none" xmlns="http://www.w3.org/2000/svg">
<circle cx="79" cy="32" r="32" fill="#FFD740"/>
<path d="M22.24 47.4V16.96L28.76 16.08V47.4H22.24ZM7.6 31.76V36.52L19.04 35.76V41.48H5.96C4.86667 41.48 3.93333 41.1067 3.16 40.36C2.38667 39.5867 2 38.6533 2 37.56V28.16L10.44 27.04V23.28L2 24.24V20L16.04 18.12V30.8L7.6 31.76ZM54.5822 47.4V33.28L50.5422 33.68V30.28L54.5822 29.84V16.96L61.1022 16.08V47.4H54.5822ZM31.5422 39.4C31.5689 37.96 32.0889 36.84 33.1022 36.04C34.1422 35.2133 35.6222 34.8 37.5422 34.8C38.1022 34.8 38.9155 34.8933 39.9822 35.08C40.3822 33.08 40.6755 30.6133 40.8622 27.68C41.0489 24.72 41.1289 21.8 41.1022 18.92L47.6222 18.28C47.3822 19.9067 47.1822 21.6 47.0222 23.36C46.6755 26.4267 46.3422 28.9467 46.0222 30.92C45.7022 32.8667 45.2355 34.6533 44.6222 36.28C46.9422 37 49.3022 37.8267 51.7022 38.76L48.2622 43.52L42.1422 40.64C41.1555 41.6533 40.0489 42.4267 38.8222 42.96C37.8089 43.3867 36.8622 43.6 35.9822 43.6C34.6489 43.6 33.5689 43.1867 32.7422 42.36C31.9422 41.5333 31.5422 40.5467 31.5422 39.4ZM35.2622 39.24C35.2622 39.5067 35.3422 39.72 35.5022 39.88C35.6889 40.04 35.9422 40.12 36.2622 40.12C36.7422 40.12 37.3289 39.92 38.0222 39.52C38.2622 39.3867 38.4622 39.1867 38.6222 38.92L38.1022 38.64C37.6489 38.3733 37.1822 38.24 36.7022 38.24C36.2755 38.24 35.9289 38.3333 35.6622 38.52C35.3955 38.7067 35.2622 38.9467 35.2622 39.24ZM87.9259 47.4V16.96L94.4459 16.08V47.4H87.9259ZM81.8059 41.6C79.6459 40.5867 77.6726 39.6533 75.8859 38.8C74.8459 39.76 73.6726 40.5067 72.3659 41.04C71.3526 41.4667 70.4059 41.68 69.5259 41.68C68.1926 41.68 67.1126 41.28 66.2859 40.48C65.4859 39.6533 65.0859 38.68 65.0859 37.56C65.0859 36.12 65.5926 34.9867 66.6059 34.16C67.6193 33.3067 69.0593 32.88 70.9259 32.88C71.7259 32.88 72.7926 33.0133 74.1259 33.28C74.9259 30.9333 75.4726 28.72 75.7659 26.64C76.0593 24.5333 76.2193 23.4267 76.2459 23.32L67.6859 24.28V20.04L73.3259 19.28C72.0993 18.5867 71.0726 17.6667 70.2459 16.52L74.7659 14.36C75.3526 15.24 76.0993 16.0667 77.0059 16.84C77.9393 17.5867 78.9393 18.0933 80.0059 18.36L81.6859 18.12L84.0859 17.8L83.0859 21.76C82.2593 25.0933 81.5526 27.6933 80.9659 29.56C80.4059 31.4 79.7393 33.08 78.9659 34.6C81.0993 35.2933 83.1926 36.04 85.2459 36.84L81.8059 41.6ZM68.7659 37.28C68.7659 37.5467 68.8459 37.7733 69.0059 37.96C69.1926 38.12 69.4459 38.2 69.7659 38.2C70.2459 38.2 70.8326 38 71.5259 37.6C71.7659 37.4667 71.9926 37.28 72.2059 37.04L71.6459 36.72C71.1926 36.4533 70.7126 36.32 70.2059 36.32C69.8059 36.32 69.4593 36.4133 69.1659 36.6C68.8993 36.7867 68.7659 37.0133 68.7659 37.28ZM118.685 47.4V33.28L114.645 33.68V30.28L118.685 29.84V16.96L125.205 16.08V47.4H118.685ZM98.4453 20L113.485 18.12V41.52H102.405C101.312 41.52 100.379 41.1467 99.6053 40.4C98.832 39.6267 98.4453 38.6933 98.4453 37.6V20ZM107.885 36.24V23.28L104.045 23.68V36.56L107.885 36.24ZM149.428 47.4V16.96L155.948 16.08V47.4H149.428ZM146.228 42.52H133.148C132.054 42.52 131.121 42.1333 130.348 41.36C129.574 40.5867 129.188 39.6667 129.188 38.6V20L134.788 19.32V37.56L146.228 36.8V42.52Z" fill="#2979FF"/>
</svg>
